# xmcd
#
# Track frame offsets:
#	150
#	17252
#	33155
#	46418
#	61533
#	77688
#	97367
#	115174
#	131034
#	160886
#	180575
#	200561
#	223105
#	244311
#
# Disc length: 3651 seconds
#
# Revision: 1
# Processed by: cddbd v1.5.2PL0 Copyright (c) Steve Scherf et al.
# Submitted via: EasyCDDAExtractor 12.0.0.1
#
DISCID=bb0e410e
DTITLE=Amanda Miguel Y Diego Verdager - Siempre Fuimos Dos
DYEAR=2005
DGENRE=Latin
TTITLE0=Siempre Te Amare
TTITLE1=La Ladrona
TTITLE2=Nena
TTITLE3=Corazon De Papel
TTITLE4=Asi No Te Amara Jamas
TTITLE5=Mi Buen Corazon
TTITLE6=A Mi Amiga
TTITLE7=El Gato Y Yo
TTITLE8=Usted Que Haria
TTITLE9=El Pasadiscos
TTITLE10=Que Sufras Mas
TTITLE11=Castillos
TTITLE12=El Me Mintio
TTITLE13=Volvere
EXTD=
EXTT0=
EXTT1=
EXTT2=
EXTT3=
EXTT4=
EXTT5=
EXTT6=
EXTT7=
EXTT8=
EXTT9=
EXTT10=
EXTT11=
EXTT12=
EXTT13=
PLAYORDER=
